<mxfile host="app.diagrams.net" agent="Mozilla/5.0 (X11; Linux x86_64) AppleWebKit/537.36 (KHTML, like Gecko) Chrome/127.0.0.0 Safari/537.36" version="24.8.4" pages="2">
  <diagram name="Page-1" id="rN1usFw5A0tOMssHL1oh">
    <mxGraphModel dx="1364" dy="793" grid="1" gridSize="10" guides="1" tooltips="1" connect="1" arrows="1" fold="1" page="1" pageScale="1" pageWidth="850" pageHeight="1100" math="0" shadow="0">
      <root>
        <mxCell id="0" />
        <mxCell id="1" parent="0" />
        <mxCell id="nD6LJxrzYYjDcoR9Uwut-1" value="&lt;div style=&quot;color: rgb(204, 204, 204); background-color: rgb(31, 31, 31); font-family: &amp;quot;Droid Sans Mono&amp;quot;, &amp;quot;monospace&amp;quot;, monospace; font-size: 20px; line-height: 27px; white-space: pre;&quot;&gt;&lt;span style=&quot;color: #4ec9b0;&quot;&gt;DigitalIdentity&lt;/span&gt;&lt;/div&gt;&lt;hr size=&quot;1&quot; style=&quot;border-style:solid;&quot;&gt;&lt;div style=&quot;color: rgb(204, 204, 204); background-color: rgb(31, 31, 31); font-family: &amp;quot;Droid Sans Mono&amp;quot;, &amp;quot;monospace&amp;quot;, monospace; font-size: 20px; line-height: 27px; white-space: pre;&quot;&gt;&lt;div&gt;&lt;span style=&quot;color: #4ec9b0;&quot;&gt;address&lt;/span&gt; owner;&lt;/div&gt;&lt;div&gt;&lt;span style=&quot;color: #4ec9b0;&quot;&gt;string&lt;/span&gt; publicKey;&lt;/div&gt;&lt;div&gt;&lt;span style=&quot;color: #4ec9b0;&quot;&gt;string&lt;/span&gt; authenticationMethod;&lt;/div&gt;&lt;div&gt;&lt;span style=&quot;color: #4ec9b0;&quot;&gt;bool&lt;/span&gt; revoked;&lt;/div&gt;&lt;div&gt;&lt;span style=&quot;color: #4ec9b0;&quot;&gt;string&lt;/span&gt; identifier;&lt;/div&gt;&lt;/div&gt;" style="align=left;overflow=fill;html=1;dropTarget=0;whiteSpace=wrap;" vertex="1" parent="1">
          <mxGeometry x="400" y="370" width="480" height="200" as="geometry" />
        </mxCell>
        <mxCell id="nD6LJxrzYYjDcoR9Uwut-2" value="" style="shape=component;jettyWidth=8;jettyHeight=4;" vertex="1" parent="nD6LJxrzYYjDcoR9Uwut-1">
          <mxGeometry x="1" width="20" height="20" relative="1" as="geometry">
            <mxPoint x="-24" y="4" as="offset" />
          </mxGeometry>
        </mxCell>
        <mxCell id="nD6LJxrzYYjDcoR9Uwut-3" value="&lt;div style=&quot;color: rgb(204, 204, 204); background-color: rgb(31, 31, 31); font-family: &amp;quot;Droid Sans Mono&amp;quot;, &amp;quot;monospace&amp;quot;, monospace; font-size: 20px; line-height: 27px; white-space: pre;&quot;&gt;&lt;span style=&quot;color: #9cdcfe;&quot;&gt;@openzeppelin/contracts/proxy&lt;/span&gt;&lt;/div&gt;" style="shape=module;align=left;spacingLeft=20;align=center;verticalAlign=top;whiteSpace=wrap;html=1;" vertex="1" parent="1">
          <mxGeometry x="20" y="110" width="420" height="60" as="geometry" />
        </mxCell>
        <mxCell id="nD6LJxrzYYjDcoR9Uwut-4" value="&lt;div style=&quot;color: rgb(204, 204, 204); background-color: rgb(31, 31, 31); font-family: &amp;quot;Droid Sans Mono&amp;quot;, &amp;quot;monospace&amp;quot;, monospace; font-size: 20px; line-height: 27px; white-space: pre;&quot;&gt;&lt;span style=&quot;color: #9cdcfe;&quot;&gt;@openzeppelin/contracts-upgradeable&lt;/span&gt;&lt;/div&gt;" style="shape=module;align=left;spacingLeft=20;align=center;verticalAlign=top;whiteSpace=wrap;html=1;" vertex="1" parent="1">
          <mxGeometry x="350" y="220" width="540" height="60" as="geometry" />
        </mxCell>
        <mxCell id="nD6LJxrzYYjDcoR9Uwut-5" value="&lt;span style=&quot;color: rgb(156, 220, 254); font-family: &amp;quot;Droid Sans Mono&amp;quot;, &amp;quot;monospace&amp;quot;, monospace; font-size: 20px; white-space: pre; background-color: rgb(31, 31, 31);&quot;&gt;@openzeppelin/contracts/security&lt;/span&gt;" style="shape=module;align=left;spacingLeft=20;align=center;verticalAlign=top;whiteSpace=wrap;html=1;" vertex="1" parent="1">
          <mxGeometry x="850" y="110" width="410" height="60" as="geometry" />
        </mxCell>
        <mxCell id="nD6LJxrzYYjDcoR9Uwut-16" style="edgeStyle=orthogonalEdgeStyle;rounded=0;orthogonalLoop=1;jettySize=auto;html=1;entryX=0;entryY=0.5;entryDx=0;entryDy=0;" edge="1" parent="1" source="nD6LJxrzYYjDcoR9Uwut-7" target="nD6LJxrzYYjDcoR9Uwut-1">
          <mxGeometry relative="1" as="geometry">
            <Array as="points">
              <mxPoint x="260" y="470" />
            </Array>
          </mxGeometry>
        </mxCell>
        <mxCell id="nD6LJxrzYYjDcoR9Uwut-7" value="" style="shape=module;align=left;spacingLeft=20;align=center;verticalAlign=top;whiteSpace=wrap;html=1;" vertex="1" parent="1">
          <mxGeometry x="140" y="670" width="210" height="60" as="geometry" />
        </mxCell>
        <mxCell id="nD6LJxrzYYjDcoR9Uwut-8" value="&lt;div style=&quot;color: rgb(204, 204, 204); background-color: rgb(31, 31, 31); font-family: &amp;quot;Droid Sans Mono&amp;quot;, &amp;quot;monospace&amp;quot;, monospace; font-size: 20px; line-height: 27px; white-space: pre;&quot;&gt;&lt;span style=&quot;color: #9cdcfe;&quot;&gt;eslint&lt;/span&gt;&lt;/div&gt;" style="shape=module;align=left;spacingLeft=20;align=center;verticalAlign=top;whiteSpace=wrap;html=1;" vertex="1" parent="1">
          <mxGeometry x="410" y="670" width="210" height="60" as="geometry" />
        </mxCell>
        <mxCell id="nD6LJxrzYYjDcoR9Uwut-13" style="edgeStyle=orthogonalEdgeStyle;rounded=0;orthogonalLoop=1;jettySize=auto;html=1;entryX=1;entryY=0.5;entryDx=0;entryDy=0;" edge="1" parent="1" source="nD6LJxrzYYjDcoR9Uwut-9" target="nD6LJxrzYYjDcoR9Uwut-1">
          <mxGeometry relative="1" as="geometry" />
        </mxCell>
        <mxCell id="nD6LJxrzYYjDcoR9Uwut-9" value="&lt;div style=&quot;color: rgb(204, 204, 204); background-color: rgb(31, 31, 31); font-family: &amp;quot;Droid Sans Mono&amp;quot;, &amp;quot;monospace&amp;quot;, monospace; font-size: 20px; line-height: 27px; white-space: pre;&quot;&gt;&lt;span style=&quot;color: #9cdcfe;&quot;&gt;@nomicfoundation/hardhat-ethers&lt;/span&gt;&lt;/div&gt;" style="shape=module;align=left;spacingLeft=20;align=center;verticalAlign=top;whiteSpace=wrap;html=1;" vertex="1" parent="1">
          <mxGeometry x="780" y="670" width="440" height="60" as="geometry" />
        </mxCell>
        <mxCell id="nD6LJxrzYYjDcoR9Uwut-10" value="&lt;div style=&quot;color: #cccccc;background-color: #1f1f1f;font-family: &#39;Droid Sans Mono&#39;, &#39;monospace&#39;, monospace;font-weight: normal;font-size: 20px;line-height: 27px;white-space: pre;&quot;&gt;&lt;div&gt;&lt;span style=&quot;color: #9cdcfe;&quot;&gt;chai&lt;/span&gt;&lt;/div&gt;&lt;/div&gt;" style="text;whiteSpace=wrap;html=1;" vertex="1" parent="1">
          <mxGeometry x="220" y="670" width="80" height="50" as="geometry" />
        </mxCell>
        <mxCell id="nD6LJxrzYYjDcoR9Uwut-11" value="&lt;div style=&quot;color: rgb(204, 204, 204); background-color: rgb(31, 31, 31); font-family: &amp;quot;Droid Sans Mono&amp;quot;, &amp;quot;monospace&amp;quot;, monospace; font-size: 20px; line-height: 27px; white-space: pre;&quot;&gt;&lt;div style=&quot;line-height: 27px;&quot;&gt;&lt;span style=&quot;color: #9cdcfe;&quot;&gt;@nomicfoundation/hardhat-toolbox&lt;/span&gt;&lt;/div&gt;&lt;/div&gt;" style="shape=module;align=left;spacingLeft=20;align=center;verticalAlign=top;whiteSpace=wrap;html=1;" vertex="1" parent="1">
          <mxGeometry x="700" y="810" width="440" height="60" as="geometry" />
        </mxCell>
        <mxCell id="nD6LJxrzYYjDcoR9Uwut-14" style="edgeStyle=orthogonalEdgeStyle;rounded=0;orthogonalLoop=1;jettySize=auto;html=1;entryX=0.238;entryY=1.015;entryDx=0;entryDy=0;entryPerimeter=0;" edge="1" parent="1" source="nD6LJxrzYYjDcoR9Uwut-8" target="nD6LJxrzYYjDcoR9Uwut-1">
          <mxGeometry relative="1" as="geometry" />
        </mxCell>
        <mxCell id="nD6LJxrzYYjDcoR9Uwut-15" style="edgeStyle=orthogonalEdgeStyle;rounded=0;orthogonalLoop=1;jettySize=auto;html=1;entryX=0.665;entryY=1;entryDx=0;entryDy=0;entryPerimeter=0;" edge="1" parent="1" source="nD6LJxrzYYjDcoR9Uwut-11" target="nD6LJxrzYYjDcoR9Uwut-1">
          <mxGeometry relative="1" as="geometry">
            <Array as="points">
              <mxPoint x="720" y="690" />
            </Array>
          </mxGeometry>
        </mxCell>
        <mxCell id="nD6LJxrzYYjDcoR9Uwut-17" style="edgeStyle=orthogonalEdgeStyle;rounded=0;orthogonalLoop=1;jettySize=auto;html=1;entryX=0;entryY=0.355;entryDx=0;entryDy=0;entryPerimeter=0;" edge="1" parent="1" source="nD6LJxrzYYjDcoR9Uwut-3" target="nD6LJxrzYYjDcoR9Uwut-1">
          <mxGeometry relative="1" as="geometry">
            <Array as="points">
              <mxPoint x="180" y="441" />
            </Array>
          </mxGeometry>
        </mxCell>
        <mxCell id="nD6LJxrzYYjDcoR9Uwut-18" style="edgeStyle=orthogonalEdgeStyle;rounded=0;orthogonalLoop=1;jettySize=auto;html=1;entryX=0.458;entryY=0.005;entryDx=0;entryDy=0;entryPerimeter=0;" edge="1" parent="1" source="nD6LJxrzYYjDcoR9Uwut-4" target="nD6LJxrzYYjDcoR9Uwut-1">
          <mxGeometry relative="1" as="geometry" />
        </mxCell>
        <mxCell id="nD6LJxrzYYjDcoR9Uwut-19" value="&lt;div style=&quot;color: rgb(204, 204, 204); background-color: rgb(31, 31, 31); font-family: &amp;quot;Droid Sans Mono&amp;quot;, &amp;quot;monospace&amp;quot;, monospace; font-size: 20px; line-height: 27px; white-space: pre;&quot;&gt;&lt;div style=&quot;line-height: 27px;&quot;&gt;&lt;div style=&quot;line-height: 27px;&quot;&gt;&lt;span style=&quot;color: #9cdcfe;&quot;&gt;@openzeppelin/hardhat-upgrades&lt;/span&gt;&lt;/div&gt;&lt;/div&gt;&lt;/div&gt;" style="shape=module;align=left;spacingLeft=20;align=center;verticalAlign=top;whiteSpace=wrap;html=1;" vertex="1" parent="1">
          <mxGeometry x="40" y="800" width="440" height="60" as="geometry" />
        </mxCell>
        <mxCell id="nD6LJxrzYYjDcoR9Uwut-21" style="edgeStyle=orthogonalEdgeStyle;rounded=0;orthogonalLoop=1;jettySize=auto;html=1;entryX=0.583;entryY=1.015;entryDx=0;entryDy=0;entryPerimeter=0;" edge="1" parent="1" source="nD6LJxrzYYjDcoR9Uwut-19" target="nD6LJxrzYYjDcoR9Uwut-1">
          <mxGeometry relative="1" as="geometry">
            <Array as="points">
              <mxPoint x="680" y="830" />
            </Array>
          </mxGeometry>
        </mxCell>
        <mxCell id="nD6LJxrzYYjDcoR9Uwut-24" style="edgeStyle=orthogonalEdgeStyle;rounded=0;orthogonalLoop=1;jettySize=auto;html=1;entryX=1;entryY=0.385;entryDx=0;entryDy=0;entryPerimeter=0;" edge="1" parent="1" source="nD6LJxrzYYjDcoR9Uwut-5" target="nD6LJxrzYYjDcoR9Uwut-1">
          <mxGeometry relative="1" as="geometry" />
        </mxCell>
      </root>
    </mxGraphModel>
  </diagram>
  <diagram id="LMyeWxcQzf8CQsykWqeU" name="Page-2">
    <mxGraphModel dx="2214" dy="793" grid="1" gridSize="10" guides="1" tooltips="1" connect="1" arrows="1" fold="1" page="1" pageScale="1" pageWidth="850" pageHeight="1100" math="0" shadow="0">
      <root>
        <mxCell id="0" />
        <mxCell id="1" parent="0" />
        <mxCell id="w_qziDDUWCfS22sy9Q3r-43" value="&lt;div style=&quot;color: rgb(204, 204, 204); background-color: rgb(31, 31, 31); font-family: &amp;quot;Droid Sans Mono&amp;quot;, &amp;quot;monospace&amp;quot;, monospace; font-size: 20px; line-height: 27px; white-space: pre;&quot;&gt;&lt;span style=&quot;color: #9cdcfe;&quot;&gt;moonbaseAlpha&lt;/span&gt;&lt;/div&gt;" style="verticalAlign=top;align=left;spacingTop=8;spacingLeft=2;spacingRight=12;shape=cube;size=10;direction=south;fontStyle=4;html=1;whiteSpace=wrap;" vertex="1" parent="1">
          <mxGeometry x="-160" y="160" width="1260" height="540" as="geometry" />
        </mxCell>
        <mxCell id="w_qziDDUWCfS22sy9Q3r-1" value="&lt;b&gt;&lt;font style=&quot;font-size: 24px;&quot;&gt;Transparent Proxy&lt;/font&gt;&lt;/b&gt;" style="shape=module;align=left;spacingLeft=20;align=center;verticalAlign=top;whiteSpace=wrap;html=1;" vertex="1" parent="1">
          <mxGeometry x="290" y="270" width="320" height="240" as="geometry" />
        </mxCell>
        <mxCell id="w_qziDDUWCfS22sy9Q3r-4" value="&lt;b style=&quot;font-size: 18px;&quot;&gt;Proxy Admin&lt;/b&gt;" style="html=1;dropTarget=0;whiteSpace=wrap;" vertex="1" parent="1">
          <mxGeometry x="-10" y="270" width="180" height="90" as="geometry" />
        </mxCell>
        <mxCell id="w_qziDDUWCfS22sy9Q3r-5" value="" style="shape=module;jettyWidth=8;jettyHeight=4;" vertex="1" parent="w_qziDDUWCfS22sy9Q3r-4">
          <mxGeometry x="1" width="20" height="20" relative="1" as="geometry">
            <mxPoint x="-27" y="7" as="offset" />
          </mxGeometry>
        </mxCell>
        <mxCell id="w_qziDDUWCfS22sy9Q3r-6" value="&lt;b&gt;&lt;font style=&quot;font-size: 18px;&quot;&gt;Digital Identity&lt;/font&gt;&lt;/b&gt;" style="html=1;dropTarget=0;whiteSpace=wrap;" vertex="1" parent="1">
          <mxGeometry x="710" y="420" width="180" height="90" as="geometry" />
        </mxCell>
        <mxCell id="w_qziDDUWCfS22sy9Q3r-7" value="" style="shape=module;jettyWidth=8;jettyHeight=4;" vertex="1" parent="w_qziDDUWCfS22sy9Q3r-6">
          <mxGeometry x="1" width="20" height="20" relative="1" as="geometry">
            <mxPoint x="-27" y="7" as="offset" />
          </mxGeometry>
        </mxCell>
        <mxCell id="w_qziDDUWCfS22sy9Q3r-8" value="&lt;font style=&quot;font-size: 18px;&quot;&gt;Update Admin&lt;/font&gt;&lt;div&gt;&lt;font size=&quot;3&quot;&gt;Update Implementation&lt;/font&gt;&lt;/div&gt;" style="html=1;whiteSpace=wrap;" vertex="1" parent="1">
          <mxGeometry x="340" y="330" width="230" height="70" as="geometry" />
        </mxCell>
        <mxCell id="w_qziDDUWCfS22sy9Q3r-9" value="&lt;font style=&quot;font-size: 24px;&quot;&gt;fallback&lt;/font&gt;" style="html=1;whiteSpace=wrap;" vertex="1" parent="1">
          <mxGeometry x="340" y="424" width="230" height="70" as="geometry" />
        </mxCell>
        <mxCell id="w_qziDDUWCfS22sy9Q3r-15" value="" style="shape=image;verticalLabelPosition=bottom;labelBackgroundColor=default;verticalAlign=top;aspect=fixed;imageAspect=0;image=https://cdn.iconscout.com/icon/free/png-256/metamask-2728406-2261817.png;" vertex="1" parent="1">
          <mxGeometry x="30" y="398" width="100" height="100" as="geometry" />
        </mxCell>
        <mxCell id="w_qziDDUWCfS22sy9Q3r-21" style="edgeStyle=orthogonalEdgeStyle;rounded=0;orthogonalLoop=1;jettySize=auto;html=1;entryX=0.013;entryY=0.414;entryDx=0;entryDy=0;entryPerimeter=0;" edge="1" parent="1" source="w_qziDDUWCfS22sy9Q3r-4" target="w_qziDDUWCfS22sy9Q3r-8">
          <mxGeometry relative="1" as="geometry" />
        </mxCell>
        <mxCell id="w_qziDDUWCfS22sy9Q3r-22" style="edgeStyle=orthogonalEdgeStyle;rounded=0;orthogonalLoop=1;jettySize=auto;html=1;entryX=0.013;entryY=0.357;entryDx=0;entryDy=0;entryPerimeter=0;" edge="1" parent="1" target="w_qziDDUWCfS22sy9Q3r-9">
          <mxGeometry relative="1" as="geometry">
            <mxPoint x="130" y="448.99" as="sourcePoint" />
          </mxGeometry>
        </mxCell>
        <mxCell id="w_qziDDUWCfS22sy9Q3r-23" value="&lt;b&gt;&lt;font style=&quot;font-size: 18px;&quot;&gt;Digital Identity&lt;/font&gt;&lt;/b&gt;" style="html=1;dropTarget=0;whiteSpace=wrap;" vertex="1" parent="1">
          <mxGeometry x="720" y="430" width="180" height="90" as="geometry" />
        </mxCell>
        <mxCell id="w_qziDDUWCfS22sy9Q3r-24" value="" style="shape=module;jettyWidth=8;jettyHeight=4;" vertex="1" parent="w_qziDDUWCfS22sy9Q3r-23">
          <mxGeometry x="1" width="20" height="20" relative="1" as="geometry">
            <mxPoint x="-27" y="7" as="offset" />
          </mxGeometry>
        </mxCell>
        <mxCell id="w_qziDDUWCfS22sy9Q3r-25" value="&lt;b&gt;&lt;font style=&quot;font-size: 18px;&quot;&gt;Digital Identity&lt;/font&gt;&lt;/b&gt;" style="html=1;dropTarget=0;whiteSpace=wrap;" vertex="1" parent="1">
          <mxGeometry x="730" y="440" width="180" height="90" as="geometry" />
        </mxCell>
        <mxCell id="w_qziDDUWCfS22sy9Q3r-26" value="" style="shape=module;jettyWidth=8;jettyHeight=4;" vertex="1" parent="w_qziDDUWCfS22sy9Q3r-25">
          <mxGeometry x="1" width="20" height="20" relative="1" as="geometry">
            <mxPoint x="-27" y="7" as="offset" />
          </mxGeometry>
        </mxCell>
        <mxCell id="w_qziDDUWCfS22sy9Q3r-27" value="&lt;b&gt;&lt;font style=&quot;font-size: 18px;&quot;&gt;Digital Identity&lt;/font&gt;&lt;/b&gt;" style="html=1;dropTarget=0;whiteSpace=wrap;" vertex="1" parent="1">
          <mxGeometry x="740" y="450" width="180" height="90" as="geometry" />
        </mxCell>
        <mxCell id="w_qziDDUWCfS22sy9Q3r-28" value="" style="shape=module;jettyWidth=8;jettyHeight=4;" vertex="1" parent="w_qziDDUWCfS22sy9Q3r-27">
          <mxGeometry x="1" width="20" height="20" relative="1" as="geometry">
            <mxPoint x="-27" y="7" as="offset" />
          </mxGeometry>
        </mxCell>
        <mxCell id="w_qziDDUWCfS22sy9Q3r-29" value="&lt;b&gt;&lt;font style=&quot;font-size: 18px;&quot;&gt;Digital Identity&lt;/font&gt;&lt;/b&gt;" style="html=1;dropTarget=0;whiteSpace=wrap;" vertex="1" parent="1">
          <mxGeometry x="750" y="460" width="180" height="90" as="geometry" />
        </mxCell>
        <mxCell id="w_qziDDUWCfS22sy9Q3r-30" value="" style="shape=module;jettyWidth=8;jettyHeight=4;" vertex="1" parent="w_qziDDUWCfS22sy9Q3r-29">
          <mxGeometry x="1" width="20" height="20" relative="1" as="geometry">
            <mxPoint x="-27" y="7" as="offset" />
          </mxGeometry>
        </mxCell>
        <mxCell id="w_qziDDUWCfS22sy9Q3r-31" value="&lt;b&gt;&lt;font style=&quot;font-size: 18px;&quot;&gt;Digital Identity&lt;/font&gt;&lt;/b&gt;" style="html=1;dropTarget=0;whiteSpace=wrap;" vertex="1" parent="1">
          <mxGeometry x="760" y="470" width="180" height="90" as="geometry" />
        </mxCell>
        <mxCell id="w_qziDDUWCfS22sy9Q3r-32" value="" style="shape=module;jettyWidth=8;jettyHeight=4;" vertex="1" parent="w_qziDDUWCfS22sy9Q3r-31">
          <mxGeometry x="1" width="20" height="20" relative="1" as="geometry">
            <mxPoint x="-27" y="7" as="offset" />
          </mxGeometry>
        </mxCell>
        <mxCell id="w_qziDDUWCfS22sy9Q3r-33" value="&lt;b&gt;&lt;font style=&quot;font-size: 18px;&quot;&gt;Digital Identity&lt;/font&gt;&lt;/b&gt;" style="html=1;dropTarget=0;whiteSpace=wrap;" vertex="1" parent="1">
          <mxGeometry x="770" y="480" width="180" height="90" as="geometry" />
        </mxCell>
        <mxCell id="w_qziDDUWCfS22sy9Q3r-34" value="" style="shape=module;jettyWidth=8;jettyHeight=4;" vertex="1" parent="w_qziDDUWCfS22sy9Q3r-33">
          <mxGeometry x="1" width="20" height="20" relative="1" as="geometry">
            <mxPoint x="-27" y="7" as="offset" />
          </mxGeometry>
        </mxCell>
        <mxCell id="w_qziDDUWCfS22sy9Q3r-35" value="&lt;b&gt;&lt;font style=&quot;font-size: 18px;&quot;&gt;Digital Identity&lt;/font&gt;&lt;/b&gt;" style="html=1;dropTarget=0;whiteSpace=wrap;" vertex="1" parent="1">
          <mxGeometry x="780" y="490" width="180" height="90" as="geometry" />
        </mxCell>
        <mxCell id="w_qziDDUWCfS22sy9Q3r-36" value="" style="shape=module;jettyWidth=8;jettyHeight=4;" vertex="1" parent="w_qziDDUWCfS22sy9Q3r-35">
          <mxGeometry x="1" width="20" height="20" relative="1" as="geometry">
            <mxPoint x="-27" y="7" as="offset" />
          </mxGeometry>
        </mxCell>
        <mxCell id="w_qziDDUWCfS22sy9Q3r-38" value="0x5cB2004364Af4D01F918c5e7BbbF8eAC873Acda1" style="text;align=center;fontStyle=1;verticalAlign=middle;spacingLeft=3;spacingRight=3;strokeColor=none;rotatable=0;points=[[0,0.5],[1,0.5]];portConstraint=eastwest;html=1;" vertex="1" parent="1">
          <mxGeometry x="40" y="502" width="80" height="26" as="geometry" />
        </mxCell>
        <mxCell id="w_qziDDUWCfS22sy9Q3r-40" value="0x0EE52333a23C12CCea882E153B8486545903F72B" style="text;align=center;fontStyle=1;verticalAlign=middle;spacingLeft=3;spacingRight=3;strokeColor=none;rotatable=0;points=[[0,0.5],[1,0.5]];portConstraint=eastwest;html=1;" vertex="1" parent="1">
          <mxGeometry x="830" y="590" width="80" height="26" as="geometry" />
        </mxCell>
        <mxCell id="w_qziDDUWCfS22sy9Q3r-41" value="0x88193f0BD79391C4dA00fC58Da486c5824018144" style="text;align=center;fontStyle=1;verticalAlign=middle;spacingLeft=3;spacingRight=3;strokeColor=none;rotatable=0;points=[[0,0.5],[1,0.5]];portConstraint=eastwest;html=1;" vertex="1" parent="1">
          <mxGeometry x="420" y="520" width="80" height="26" as="geometry" />
        </mxCell>
        <mxCell id="w_qziDDUWCfS22sy9Q3r-42" value="0x5cB2004364Af4D01F918c5e7BbbF8eAC873Acda1" style="text;align=center;fontStyle=1;verticalAlign=middle;spacingLeft=3;spacingRight=3;strokeColor=none;rotatable=0;points=[[0,0.5],[1,0.5]];portConstraint=eastwest;html=1;" vertex="1" parent="1">
          <mxGeometry x="50" y="364" width="80" height="26" as="geometry" />
        </mxCell>
        <mxCell id="w_qziDDUWCfS22sy9Q3r-10" style="edgeStyle=orthogonalEdgeStyle;rounded=0;orthogonalLoop=1;jettySize=auto;html=1;entryX=0;entryY=0.5;entryDx=0;entryDy=0;" edge="1" parent="1" source="w_qziDDUWCfS22sy9Q3r-9" target="w_qziDDUWCfS22sy9Q3r-35">
          <mxGeometry relative="1" as="geometry" />
        </mxCell>
      </root>
    </mxGraphModel>
  </diagram>
</mxfile>
